# This file uses centimeters as units for non-parametric coordinates.

mtllib Leaf_Desktop_1.mtl
g default
v -0.090844 0.019389 -2.048019
v -0.400296 0.123863 -1.983781
v -0.090844 -0.118081 -1.147162
v -0.361893 -0.013607 -1.147162
v -0.649656 -0.118081 -1.147162
v -0.090844 0.097745 -0.246304
v -0.361893 0.182154 -0.246304
v -0.649656 0.097745 -0.246304
v 0.005146 0.043962 0.010945
v -0.059341 0.000000 0.508871
v -0.577974 0.000000 0.451110
vt 0.368956 -0.000799
vt 0.575307 0.023188
vt 0.498930 0.341063
vt 0.368956 0.341063
vt 0.622531 0.341063
vt 0.498930 0.658937
vt 0.367924 0.676289
vt 0.651907 0.658937
vt 0.339914 0.992462
vt 0.306833 0.806771
vt 0.593901 0.967985
vn 0.335566 0.932277 0.135112
vn 0.275385 0.951088 0.139982
vn 0.055984 0.996493 -0.062188
vn 0.333909 0.942076 -0.031591
vn 0.275385 0.951088 0.139982
vn -0.318756 0.941922 -0.105721
vn 0.055984 0.996493 -0.062188
vn 0.333909 0.942076 -0.031591
vn 0.055984 0.996493 -0.062188
vn -0.015190 0.999843 -0.009174
vn 0.235148 0.971648 -0.024597
vn 0.055984 0.996493 -0.062188
vn -0.318756 0.941922 -0.105721
vn -0.215091 0.976569 0.007045
vn -0.015190 0.999843 -0.009174
vn 0.235148 0.971648 -0.024597
vn -0.015190 0.999843 -0.009174
vn 0.001367 0.984931 0.172944
vn 0.168344 0.979954 0.106542
vn -0.015190 0.999843 -0.009174
vn -0.215091 0.976569 0.007045
vn -0.117372 0.969143 0.216760
vn 0.001367 0.984931 0.172944
s off
g Leaf_Hero1:pPlane1
usemtl Leaf_Hero1:initialShadingGroup
f 1/1/1 2/2/2 4/3/3 3/4/4
f 2/2/5 5/5/6 4/3/7
f 3/4/8 4/3/9 7/6/10 6/7/11
f 4/3/12 5/5/13 8/8/14 7/6/15
f 6/7/16 7/6/17 10/9/18 9/10/19
f 7/6/20 8/8/21 11/11/22 10/9/23
