# This file uses centimeters as units for non-parametric coordinates.

mtllib Leaf_Desktop_LOD_1.mtl
g default
v 0.064326 0.019389 -2.498575
v -0.920854 0.123863 -2.498575
v -0.933016 -0.118081 -1.597718
v -0.066360 -0.118081 -1.597718
v 0.005809 0.000000 0.014019
v -0.542549 0.000000 -0.041173
vt 0.278653 0.023188
vt 0.696906 0.023188
vt 0.764446 0.341063
vt 0.372200 0.341063
vt 0.381188 0.973398
vt 0.667858 0.932214
vn 0.329710 0.934605 0.133436
vn 0.270268 0.952729 0.138787
vn 0.046997 0.997088 -0.060062
vn 0.330484 0.942458 -0.050531
vn 0.315390 0.937084 -0.149678
vn -0.014641 0.999875 -0.005971
vn -0.059841 0.973991 0.218544
vn -0.203355 0.978593 0.031669
vn -0.095420 0.967659 0.233520
vn -0.059841 0.973991 0.218544
s off
g Leaf_Hero2:pPlane1
usemtl Leaf_Hero2:initialShadingGroup
f 1/1/1 2/2/2 3/3/3 4/4/4
f 4/4/5 3/3/6 5/5/7
f 3/3/8 6/6/9 5/5/10
