# This file uses centimeters as units for non-parametric coordinates.

mtllib Leaf_Hero1.mtl
g default
v -0.368551 0.019389 -2.048019
v -0.678003 0.123863 -2.048019
v -0.368551 -0.118081 -1.147162
v -0.639600 -0.013607 -1.147162
v -0.927363 -0.118081 -1.147162
v -0.368551 0.097745 -0.246304
v -0.639600 0.182154 -0.246304
v -0.927363 0.097745 -0.246304
v 0.002031 0.043962 0.010945
v -0.293401 0.000000 0.533999
v -0.855681 0.000000 0.451110
vt 0.467326 0.023188
vt 0.673677 0.023188
vt 0.467326 0.341063
vt 0.597300 0.341063
vt 0.720901 0.341063
vt 0.460955 0.658937
vt 0.597300 0.658937
vt 0.750277 0.658937
vt 0.113697 0.773769
vt 0.181482 0.976812
vt 0.676304 0.932214
vn 0.335566 0.932277 0.135112
vn 0.275385 0.951088 0.139982
vn 0.055984 0.996493 -0.062188
vn 0.333909 0.942076 -0.031591
vn -0.318756 0.941922 -0.105721
vn -0.015190 0.999843 -0.009174
vn 0.235148 0.971648 -0.024597
vn -0.215091 0.976569 0.007045
vn 0.001367 0.984931 0.172944
vn 0.168344 0.979954 0.106542
vn -0.117372 0.969143 0.216760
s 1
g pPlane1
usemtl initialShadingGroup
f 1/1/1 2/2/2 4/4/3 3/3/4
f 2/2/2 5/5/5 4/4/3
f 3/3/4 4/4/3 7/7/6 6/6/7
f 4/4/3 5/5/5 8/8/8 7/7/6
f 6/6/7 7/7/6 10/10/9 9/9/10
f 7/7/6 8/8/8 11/11/11 10/10/9
