# This file uses centimeters as units for non-parametric coordinates.

mtllib Leaf_Desktop2.mtl
g default
v -0.269683 0.019389 -2.498575
v -0.590922 0.123863 -2.498575
v -0.828495 -0.118081 -1.597718
v -0.186194 0.097745 -0.696860
v -0.457244 0.182154 -0.696860
v -0.745006 0.097745 -0.696860
v 0.003473 0.000000 0.014019
v -0.673105 0.000000 -0.030254
vt 0.515845 0.023188
vt 0.722196 0.023188
vt 0.769421 0.341063
vt 0.465926 0.658937
vt 0.607240 0.658937
vt 0.765189 0.658937
vt 0.260686 0.946176
vt 0.676304 0.932214
vn 0.303378 0.951319 -0.054359
vn 0.134989 0.989351 -0.054427
vn -0.080237 0.995992 0.039532
vn 0.302478 0.952498 -0.035416
vn -0.572441 0.819107 -0.037081
vn -0.409523 0.909845 0.066875
vn -0.059841 0.973991 0.218544
vn -0.095420 0.967659 0.233520
s 1
g pPlane1
usemtl initialShadingGroup
f 1/1/1 2/2/2 5/5/3 4/4/4
f 2/2/2 3/3/5 6/6/6 5/5/3
f 4/4/4 5/5/3 7/7/7
f 5/5/3 6/6/6 8/8/8 7/7/7
